<svg preserveAspectRatio="xMidYMid" version="1.1" viewBox="0 0 256 256" xmlns="http://www.w3.org/2000/svg">
	<defs>
		<linearGradient id="a" x1="107.29" x2="107.29" y2="214.73" gradientTransform="matrix(1.2056 0 0 1.036 .26373 16.802)" gradientUnits="userSpaceOnUse">
			<stop stop-color="#E52D27" offset="0"/>
			<stop stop-color="#BF171D" offset="1"/>
		</linearGradient>
	</defs>
	<g opacity="0.3">
		<path d="m256.31 64.741s-2.5262-21.745-10.307-31.382c-9.8014-12.602-20.816-12.602-25.969-13.344-36.074-3.2124-90.336-3.2124-90.336-3.2124h-0.10109s-54.262 0-90.538 3.2124c-5.0523 0.74132-16.067 0.74132-25.969 13.344-7.6796 9.6371-10.206 31.382-10.206 31.382s-2.6272 25.699-2.6272 51.275v23.969c0 25.576 2.6272 51.151 2.6272 51.151s2.5262 21.745 10.307 31.382c9.8014 12.602 22.735 12.232 28.495 13.467 20.715 2.4711 87.911 3.2124 87.911 3.2124s54.363-0.12356 90.538-3.3359c5.0523-0.74132 16.067-0.74132 25.969-13.344 7.7806-9.6372 10.307-31.382 10.307-31.382s2.6272-25.576 2.6272-51.151v-23.969c-0.10109-25.576-2.7283-51.275-2.7283-51.275z" fill="url(#a)" stroke-width="1.1176"/>
		<g transform="matrix(-7.6722 0 0 7.6722 189.96 66.623)" fill="#fff">
			<path d="m6 12a2 2 0 1 1 -4 0 2 2 0 1 1 4 0z" overflow="visible"/>
			<path d="m2 2v1c0 0.55 0.454 1 1 1a9 9 0 0 1 9 9c0 0.55 0.454 1 1 1h1v-1c0-6.075-4.925-11-11-11zm0 4v1c0 0.55 0.454 1 1 1a5 5 0 0 1 5 5c0 0.55 0.454 1 1 1h1v-1a7 7 0 0 0 -7 -7z" overflow="visible"/>
		</g>
	</g>
</svg>
