<svg version="1.1" viewBox="0 0 100 99.148132" xmlns="http://www.w3.org/2000/svg" xmlns:cc="http://creativecommons.org/ns#" xmlns:dc="http://purl.org/dc/elements/1.1/" xmlns:rdf="http://www.w3.org/1999/02/22-rdf-syntax-ns#">
	<metadata>
		<rdf:RDF>
			<cc:Work rdf:about="">
				<dc:format>image/svg+xml</dc:format>
				<dc:type rdf:resource="http://purl.org/dc/dcmitype/StillImage"/>
				<dc:title/>
			</cc:Work>
		</rdf:RDF>
	</metadata>
	<path d="M84.184 0h-69.21C6.703 0 0 6.704 0 14.973v69.203c0 8.27 6.704 14.973 14.973 14.973h69.21c8.27 0 14.973-6.705 15.817-14.692V15.256C99.157 6.706 92.452 0 84.184 0z" fill="#e5e5e5"/>
	<path d="m21.984 6.9805c-8.2521 0-14.943 13.285-14.943 29.666v25.861c0 16.379 6.6903 29.66 14.943 29.66h56.033c8.2521 0 14.941-13.277 14.941-29.658v-25.861c0-16.381-6.6903-29.668-14.943-29.668h-56.031zm57.143 17.309a4.2013 4.2013 0 0 1 0 8.4023 45.723 45.723 0 0 0 -46.213 46.215 4.2013 4.2013 0 0 1 -8.4043 0 54.037 54.037 0 0 1 54.617 -54.617zm0 16.805a4.2013 4.2013 0 0 1 0 8.4023 29.098 29.098 0 0 0 -29.408 29.41 4.2013 4.2013 0 0 1 -8.4023 0 37.392 37.392 0 0 1 37.811 -37.812zm-6.3008 21.008a10.503 10.503 0 1 1 -10.504 10.502 10.503 10.503 0 0 1 10.504 -10.502z" fill="#cb322c" stroke-width="1.406"/>
</svg>
