<svg version="1.1" viewBox="0 0 100 100" xmlns="http://www.w3.org/2000/svg" xmlns:cc="http://creativecommons.org/ns#" xmlns:dc="http://purl.org/dc/elements/1.1/" xmlns:rdf="http://www.w3.org/1999/02/22-rdf-syntax-ns#">
	<metadata>
		<rdf:RDF>
			<cc:Work rdf:about="">
				<dc:format>image/svg+xml</dc:format>
				<dc:type rdf:resource="http://purl.org/dc/dcmitype/StillImage"/>
				<dc:title/>
			</cc:Work>
		</rdf:RDF>
	</metadata>
	<path d="m84.184 0h-69.21c-8.271 0-14.974 6.7615-14.974 15.102v69.797c0 8.341 6.704 15.102 14.973 15.102h69.21c8.27 0 14.973-6.7626 15.817-14.818v-69.795c-0.84301-8.6234-7.548-15.387-15.816-15.387z" fill="#e5e5e5" stroke-width="1.0043"/>
	<path d="m22.133 7.0339c-8.2363 0-14.914 13.387-14.914 29.893v26.059c0 16.504 6.6775 29.887 14.914 29.887h55.926c8.2363 0 14.912-13.379 14.912-29.885v-26.059c0-16.506-6.6775-29.895-14.914-29.895zm57.034 17.441a4.1933 4.2334 0 0 1 0 8.4666 45.636 46.073 0 0 0 -46.125 46.569 4.1941 4.2343 0 0 1 -8.3882 0 53.934 54.45 0 0 1 54.513 -55.035zm0 16.934a4.1933 4.2334 0 0 1 0 8.4666 29.042 29.321 0 0 0 -29.352 29.635 4.1933 4.2334 0 0 1 -8.3862 0 37.321 37.678 0 0 1 37.739 -38.101zm-6.2888 21.169a10.483 10.583 0 1 1 -10.484 10.582 10.483 10.583 0 0 1 10.484 -10.582z" fill="#cb322c" stroke-width="1.41"/>
</svg>
